<?xml version="1.0" encoding="UTF-8" standalone="no"?>
<!-- Created with Inkscape (http://www.inkscape.org/) -->

<svg
   xmlns:dc="http://purl.org/dc/elements/1.1/"
   xmlns:cc="http://creativecommons.org/ns#"
   xmlns:rdf="http://www.w3.org/1999/02/22-rdf-syntax-ns#"
   xmlns:svg="http://www.w3.org/2000/svg"
   xmlns="http://www.w3.org/2000/svg"
   xmlns:xlink="http://www.w3.org/1999/xlink"
   xmlns:sodipodi="http://sodipodi.sourceforge.net/DTD/sodipodi-0.dtd"
   xmlns:inkscape="http://www.inkscape.org/namespaces/inkscape"
   width="200"
   height="200"
   id="svg2"
   version="1.1"
   inkscape:version="0.48.4 r9939"
   sodipodi:docname="icon.svg"
   inkscape:export-filename="/home/joshua/Programming/Git/Solve4x/icon_lg.png"
   inkscape:export-xdpi="115.2"
   inkscape:export-ydpi="115.2">
  <defs
     id="defs4">
    <linearGradient
       id="linearGradient3819">
      <stop
         id="stop3821"
         offset="0"
         style="stop-color:#ffffff;stop-opacity:0.21538462;" />
      <stop
         id="stop3825"
         offset="1"
         style="stop-color:#ffffff;stop-opacity:0.42307693;" />
    </linearGradient>
    <linearGradient
       id="linearGradient3767">
      <stop
         style="stop-color:#415439;stop-opacity:0.70769233;"
         offset="0"
         id="stop3769" />
      <stop
         id="stop3791"
         offset="0.5"
         style="stop-color:#3f3f3f;stop-opacity:0.81538463;" />
      <stop
         style="stop-color:#000000;stop-opacity:0.46153846;"
         offset="1"
         id="stop3771" />
    </linearGradient>
    <linearGradient
       id="linearGradient3796">
      <stop
         style="stop-color:#62ff8b;stop-opacity:1;"
         offset="0"
         id="stop3798" />
      <stop
         style="stop-color:#037721;stop-opacity:1;"
         offset="1"
         id="stop3800" />
    </linearGradient>
    <radialGradient
       inkscape:collect="always"
       xlink:href="#linearGradient3796"
       id="radialGradient3804"
       cx="100"
       cy="100"
       fx="100"
       fy="100"
       r="92.658035"
       gradientUnits="userSpaceOnUse"
       gradientTransform="matrix(0.98181799,0,0,0.98793522,1.8182006,846.78294)" />
    <radialGradient
       inkscape:collect="always"
       xlink:href="#linearGradient3767"
       id="radialGradient3773"
       cx="100.17857"
       cy="183.92857"
       fx="100.17857"
       fy="183.92857"
       r="111.33705"
       gradientTransform="matrix(1,0,0,0.31193482,0,126.55485)"
       gradientUnits="userSpaceOnUse" />
    <filter
       inkscape:collect="always"
       id="filter3805"
       x="-0.07186915"
       width="1.1437383"
       y="-0.50008953"
       height="2.0001791">
      <feGaussianBlur
         inkscape:collect="always"
         stdDeviation="5.3581019"
         id="feGaussianBlur3807" />
    </filter>
    <linearGradient
       inkscape:collect="always"
       xlink:href="#linearGradient3819"
       id="linearGradient3817"
       x1="137.49942"
       y1="11.361331"
       x2="138.21487"
       y2="60.661419"
       gradientUnits="userSpaceOnUse" />
    <linearGradient
       inkscape:collect="always"
       xlink:href="#linearGradient3819"
       id="linearGradient4004"
       gradientUnits="userSpaceOnUse"
       x1="137.49942"
       y1="11.361331"
       x2="138.21487"
       y2="60.661419"
       gradientTransform="matrix(1.3183498,0,0,2.8796845,-81.743942,-39.52534)" />
    <linearGradient
       inkscape:collect="always"
       xlink:href="#linearGradient3819"
       id="linearGradient4007"
       gradientUnits="userSpaceOnUse"
       gradientTransform="matrix(1.3273481,0,0,2.8993395,-83.708069,812.12171)"
       x1="137.49942"
       y1="11.361331"
       x2="138.21487"
       y2="60.661419" />
  </defs>
  <sodipodi:namedview
     id="base"
     pagecolor="#ffffff"
     bordercolor="#666666"
     borderopacity="1.0"
     inkscape:pageopacity="0.0"
     inkscape:pageshadow="2"
     inkscape:zoom="2.9380287"
     inkscape:cx="164.52226"
     inkscape:cy="94.312612"
     inkscape:document-units="px"
     inkscape:current-layer="layer1"
     showgrid="false"
     inkscape:window-width="1366"
     inkscape:window-height="744"
     inkscape:window-x="0"
     inkscape:window-y="24"
     inkscape:window-maximized="1" />
  <metadata
     id="metadata7">
    <rdf:RDF>
      <cc:Work
         rdf:about="">
        <dc:format>image/svg+xml</dc:format>
        <dc:type
           rdf:resource="http://purl.org/dc/dcmitype/StillImage" />
      </cc:Work>
    </rdf:RDF>
  </metadata>
  <g
     inkscape:label="Layer 1"
     inkscape:groupmode="layer"
     id="layer1"
     transform="translate(0,-852.36218)">
    <path
       sodipodi:type="arc"
       style="fill:#e0e0e0;fill-opacity:1;stroke:#71f374;stroke-width:0;stroke-linecap:butt;stroke-linejoin:round;stroke-miterlimit:4;stroke-opacity:1;stroke-dasharray:none"
       id="path3011"
       sodipodi:cx="100.35714"
       sodipodi:cy="96.071426"
       sodipodi:rx="90.714287"
       sodipodi:ry="90.714287"
       d="m 191.07143,96.071426 a 90.714287,90.714287 0 1 1 -181.4285772,0 90.714287,90.714287 0 1 1 181.4285772,0 z"
       transform="matrix(1.0145921,0,0,1.0132655,-1.821561,847.60966)" />
    <path
       sodipodi:type="arc"
       style="opacity:1;fill:url(#radialGradient3773);fill-opacity:1;stroke:#43e530;stroke-width:0;stroke-linecap:butt;stroke-linejoin:round;stroke-miterlimit:4;stroke-opacity:1;stroke-dasharray:none;filter:url(#filter3805)"
       id="path3816"
       sodipodi:cx="100.17857"
       sodipodi:cy="183.92857"
       sodipodi:rx="89.464287"
       sodipodi:ry="12.857142"
       d="m 189.64286,183.92857 c 0,7.10081 -40.05453,12.85715 -89.46429,12.85715 -49.409758,0 -89.464283,-5.75634 -89.464283,-12.85715 0,-7.1008 40.054525,-12.85714 89.464283,-12.85714 49.40976,0 89.46429,5.75634 89.46429,12.85714 z"
       transform="matrix(1,0,0,0.9484738,-0.17857361,859.69646)" />
    <g
       transform="scale(0.75784147,1.3195372)"
       style="font-size:61.54728699px;font-style:normal;font-weight:normal;line-height:125%;letter-spacing:0px;word-spacing:0px;fill:#000000;fill-opacity:1;stroke:none;font-family:Sans"
       id="text3755" />
    <path
       style="opacity:1;fill:url(#radialGradient3804);fill-opacity:1;stroke:#71f374;stroke-width:2.19099999999999984;stroke-linecap:butt;stroke-linejoin:round;stroke-miterlimit:4;stroke-opacity:1;stroke-dasharray:none"
       d="m 100,854.01397 c -25.886654,0 -47.379038,9.03849 -64.745536,25.41071 3.85899,-3.2415 8.838139,-3.4329 14.132637,-2.80801 5.531403,0.8885 8.424105,2.55238 11.737899,4.99105 3.313708,2.37944 5.769318,5.96326 7.375,10.78125 1.639745,4.81822 2.468697,10.93672 2.46875,18.3125 -5.3e-5,7.79234 -1.227857,14.74834 -3.6875,20.875 -2.45974,6.06732 -5.314202,11.38863 -8.59375,15.96875 -3.245467,4.58023 -6.586704,9.41577 -9.96875,14.53125 -3.347944,5.05608 -5.000026,9.50564 -5,13.3125 -2.6e-5,1.78452 0.613877,3.4192 1.84375,4.90625 1.229818,1.48709 2.910238,2.21878 5.0625,2.21875 2.391335,3e-5 4.286804,-1.1489 5.6875,-3.46875 1.434782,-2.37928 2.15621,-5.26569 2.15625,-8.65625 -4e-5,-2.02238 -0.158416,-3.83141 -0.5,-5.4375 0.922345,0.29746 1.374959,2.59529 1.375,6.9375 l 0,0.71875 c -4.1e-5,3.56901 -0.265942,6.5955 -0.8125,9.09375 -0.512476,2.43882 -1.714856,4.52502 -3.59375,6.25 -1.878967,1.72503 -4.708004,2.59376 -8.5,2.59375 -3.382104,10e-6 -5.894389,-0.93726 -7.5,-2.78125 -1.605653,-1.84395 -2.406268,-5.07906 -2.40625,-9.71875 -1.8e-5,-4.93705 0.93646,-8.83229 2.78125,-11.6875 1.87891,-2.85514 5.239748,-7.09908 10.125,-12.75 4.88519,-5.7103 8.517753,-11.16867 10.875,-16.34375 2.357162,-5.17494 3.531205,-11.64518 3.53125,-19.4375 -4.5e-5,-5.65079 -0.664798,-10.7292 -2.03125,-15.25 -1.332376,-4.52059 -3.097808,-8.27575 -5.25,-11.25 -2.152268,-3.03351 -4.554115,-5.3626 -7.21875,-6.96875 -2.664696,-1.60592 -5.199494,-2.40612 -7.625,-2.40625 -3.040476,1.3e-4 -5.711136,1.21757 -8,3.65625 -2.288895,2.37942 -4.023077,5.68308 -5.21875,9.90625 -1.195693,4.1639 -1.812508,8.85634 -1.8125,14.03125 -8e-6,13.20526 3.952219,23.63928 11.84375,31.3125 l -4.71875,0 c -3.040468,-2.49822 -5.413977,-5.07019 -7.15625,-7.6875 -1.74229,-2.61717 -2.973007,-5.46932 -3.65625,-8.5625 -0.683252,-3.15251 -1.031253,-7.01348 -1.03125,-11.59375 -3e-6,-5.76973 0.778099,-11.26541 2.28125,-16.5 0.556054,-1.89332 0.180176,-1.46742 1.053571,-3.14286 C 14.03403,908.58786 8.4375,925.18308 8.4375,945.57647 c 0,50.57592 40.986578,91.56253 91.5625,91.56253 27.13997,0 51.51204,-11.8057 68.28125,-30.5625 -1.32643,0.726 -2.57997,1.0937 -3.75,1.0937 -2.63055,0 -4.95321,-0.9403 -6.96875,-2.8437 -1.98146,-1.963 -3.6873,-4.5349 -5.15625,-7.68753 -1.46902,-3.15257 -2.75058,-6.52779 -3.84375,-10.15625 -1.09322,-3.68792 -0.5843,-6.95304 -1.60914,-10.40308 -3e-5,0.0595 -1.59995,3.44011 -3.78632,10.28062 -2.15225,6.84053 -4.29206,10.89747 -4.29204,12.62246 l 0.1875,0.53128 c 0.10247,0.7732 0.37128,1.6077 0.78125,2.5 0.40992,0.8922 0.78335,1.5896 1.125,2.125 0.37576,0.4758 0.77462,1.0301 1.21875,1.625 l -14.8125,0 c 3.34791,-3.5095 6.25904,-7.61337 8.71875,-12.31253 2.49384,-4.69912 4.38931,-9.22022 5.6875,-13.5625 1.29815,-4.4017 2.04792,-7.91397 2.21875,-10.53125 -0.95657,-6.00773 -2.69366,-13.55229 -5.1875,-22.59375 -2.45971,-9.04133 -5.42462,-13.56244 -8.875,-13.5625 -1.84478,6e-5 -4.54086,1.46041 -8.09375,4.375 2.49385,-5.05597 4.33556,-8.4997 5.53125,-10.34375 1.22984,-1.90337 2.40679,-3.12083 3.5,-3.65625 1.09319,-0.53527 2.69442,-0.81243 4.8125,-0.8125 2.32303,7e-5 4.5665,1.39188 6.71875,4.1875 2.15221,2.79576 3.99392,6.02786 5.53125,9.65625 1.57144,3.62851 2.79924,6.86362 3.6875,9.71875 0.88819,2.79574 1.47376,4.81341 1.78125,6.0625 0.92235,-2.43874 1.88426,-4.97645 2.875,-7.59375 1.02484,-2.67667 1.85378,-5.18312 2.46875,-7.5625 0.64905,-2.37925 0.96871,-4.63979 0.96875,-6.78125 -4e-5,-1.36802 -0.2376,-2.55122 -0.75,-3.5625 -0.51248,-1.01114 -1.36685,-2.39992 -2.5625,-4.125 l 16.65625,0 c -1.91315,1.66559 -4.7451,5.4893 -8.46875,11.4375 -3.72375,5.88887 -6.97996,14.37676 -9.78125,25.5 0.23911,2.73625 0.79924,6.84012 1.6875,12.3125 0.88819,5.47245 2.38189,10.96812 4.5,16.5 2.11802,5.47244 4.73493,8.21876 7.84375,8.21875 1.57142,10e-6 4.42288,-0.86889 7.92481,-4.41466 2.07819,-2.26355 1.54341,-1.75076 1.68925,-1.85485 7.33644,-9.5564 13.10469,-26.74306 13.10469,-45.38674 0,-50.57593 -40.98658,-91.5625 -91.5625,-91.5625 z m 3.09375,84.96875 c -0.30749,6e-5 3.88522,0.24295 12.5625,0.71875 -1.9473,3.21213 -3.81443,5.89295 -5.625,8.09375 -1.77648,2.14144 -3.67194,3.2188 -5.6875,3.21875 -1.70814,-0.29737 -3.95161,-0.6118 -6.71875,-0.96875 -2.733011,-0.41633 -5.001911,-0.62493 -6.8125,-0.625 -2.869658,7e-5 -6.3155,1.56622 -10.3125,4.71875 1.366494,-4.75857 3.04982,-8.34239 5.03125,-10.78125 1.981407,-2.43873 4.196539,-3.65619 6.65625,-3.65625 7.105757,-0.4758 10.73541,-0.71869 10.90625,-0.71875 z m -0.25,26.3125 c 0.51241,5e-5 1.95236,0.10277 4.34375,0.28125 2.4255,0.11902 5.17535,0.25909 8.25,0.4375 -2.01562,3.33108 -3.85733,6.00886 -5.53125,8.03125 -1.63982,2.02244 -3.58615,3.10282 -5.875,3.28125 -1.67399,-0.29738 -3.88911,-0.61183 -6.65625,-0.96875 -2.733011,-0.41635 -5.004817,-0.62497 -6.78125,-0.625 -2.86965,3e-5 -6.3155,1.56619 -10.3125,4.71875 1.366494,-4.75859 3.049828,-8.34242 5.03125,-10.78125 1.981414,-2.43876 4.199453,-3.65621 6.625,-3.65625 7.174084,-0.47583 10.80373,-0.7187 10.90625,-0.71875 z m -54.625,30.6875 c 2.152201,10e-6 3.96557,0.72867 5.46875,2.15625 1.50311,1.42759 2.281212,3.82823 2.28125,7.21873 -3.8e-5,2.3793 -0.854416,4.2912 -2.5625,5.7188 -1.673991,1.4275 -3.679899,2.125 -5.96875,2.125 -2.767182,0 -4.74184,-0.9061 -5.9375,-2.75 -1.195706,-1.844 -1.781272,-3.9302 -1.78125,-6.25 -2.2e-5,-1.7845 0.398831,-3.3134 1.21875,-4.56253 0.854037,-1.24913 1.920554,-2.15517 3.21875,-2.75 1.332307,-0.59482 2.695975,-0.90624 4.0625,-0.90625 z"
       id="path2985"
       inkscape:connector-curvature="0"
       sodipodi:nodetypes="sccccccccccccccsccsscsccscccccccsccccsccsscsccccccccccccccccccccccccccccccccccsccssccccccccccccccccccsccccccsccccc" />
    <path
       style="opacity:0.76543214000000004;fill:url(#linearGradient4007);fill-opacity:1.0;stroke:#71f374;stroke-width:0;stroke-linecap:butt;stroke-linejoin:round;stroke-miterlimit:4;stroke-opacity:1"
       d="m 99.999995,852.26292 c -51.435021,0 -93.1313403,41.69632 -93.1313403,93.13135 0,4.28932 0.2880959,8.5129 0.8495089,12.64824 21.7361684,15.22651 54.6877644,24.91893 91.5581804,24.91893 37.786956,0 71.430216,-10.19958 93.131346,-26.08307 0.46285,-3.76349 0.72366,-7.59547 0.72366,-11.4841 0,-51.43503 -41.69632,-93.13135 -93.131355,-93.13135 z"
       id="path3809"
       inkscape:connector-curvature="0" />
  </g>
</svg>
